<svg width="200" height="200" xmlns="http://www.w3.org/2000/svg">
 <title>Group 28 Copy 5</title>
 <desc>Created with Sketch.</desc>

 <g>
  <title>background</title>
  <rect fill="none" id="canvas_background" height="202" width="202" y="-1" x="-1"/>
 </g>
 <g>
  <title>Layer 1</title>
  <path stroke="#e6f7ff" transform="rotate(16.158376693725586 77.85223388671876,88.0952682495117) " id="svg_2" d="m101.634117,174.358922c-4.291606,-4.628945 -10.965239,-5.15681 -12.569973,-11.745511c-1.257792,-3.583717 -13.115276,-8.390191 -6.097448,-1.95791c5.419005,3.876039 11.85712,18.172708 -1.47478,13.655662c-10.139907,-2.934645 -10.574714,-11.996558 -13.292691,-18.780891c-8.838673,-4.835877 2.285176,-15.060985 -7.231562,-21.25702c-8.077014,-6.467921 -2.45188,-18.581381 -13.99326,-23.167493c-5.793005,-1.854158 -8.300486,10.94795 -9.275871,1.582371c-3.173736,-9.472342 -14.38253,4.604592 -21.856867,3.112215c-6.031361,-0.413482 10.088904,-3.720094 2.396228,-4.609933c-4.522705,1.952451 -8.707299,5.328359 -9.422827,-0.259768c-5.440544,-2.548106 -16.84948,-6.61733 -16.55311,-10.66524c4.724556,-1.170418 20.67412,2.216249 17.910123,-2.489436c-4.742849,-1.419426 -5.604412,-5.299518 0.204643,-2.695465c11.448026,0.283202 24.868369,-3.320488 34.393855,3.571968c4.968527,2.410851 9.853757,11.057361 12.513652,2.654571c8.574255,-8.155357 25.875714,-8.846143 31.161347,-19.405287c1.279056,-5.108647 -3.928301,-8.023279 -8.352113,-9.05807c-0.860656,-1.678884 -2.325766,-8.8068 -5.98396,-5.209829c0.166735,-3.148201 3.598308,-10.676661 -4.002752,-7.343809c-0.770957,-6.705473 6.497956,-13.395326 -3.117839,-18.278335c9.009485,1.318005 7.232854,-6.781856 5.270504,-8.066464c5.340744,-0.598045 11.608358,-4.388055 8.663657,-9.083232c5.799905,8.303459 6.001013,-10.073632 10.776044,-2.152553c8.788472,1.136206 -2.730254,-6.191906 5.352984,-4.556247c4.61562,0.124545 3.59051,-3.988197 7.73692,-0.88417c5.487707,-2.361283 -4.206868,-9.497463 4.653618,-4.539162c2.978577,2.040612 12.461528,7.385277 10.760068,0.332519c8.419441,7.082577 15.045101,-6.578509 22.04133,-9.407586c2.77507,-2.61814 8.809699,-5.388945 3.244191,-0.391201c-3.694773,6.370582 -16.229898,13.2622 -12.857564,19.592298c-3.052493,2.191509 6.158864,4.945855 -1.17376,4.11618c-4.344057,3.697884 5.823969,10.616397 6.635427,16.436295c-2.3291,3.987664 -11.197764,8.514719 -14.785362,8.371636c1.311231,-5.13412 -1.531338,-11.825864 -9.833963,-8.923843c4.650967,6.710997 10.939006,13.122116 14.878686,20.420204c3.850753,7.174369 10.094088,15.459314 18.308061,6.225894c5.235351,-5.884994 20.191451,-5.799802 16.083135,3.75745c-2.100185,9.384943 3.522647,21.771179 -7.281495,28.235855c-6.517653,9.904192 -13.743347,-3.682591 -8.622792,-8.822591c-1.304769,-1.468849 -2.314149,-2.505719 1.503939,-4.513537c-0.788374,-1.506076 10.987818,-7.172331 5.052663,-10.649232c-6.750268,6.036288 -16.627472,13.023318 -13.882482,21.996179c2.227859,6.012901 -16.146453,16.321473 -14.67714,6.342503c0.329117,-3.878165 7.350376,-11.394483 5.734173,-12.362814c-5.126155,7.584975 -12.418361,14.871964 -23.437626,17.123954c-9.165866,0.428341 -13.967316,6.248227 -9.614621,12.705454c0.831839,9.150179 -5.293009,17.431545 -6.703097,26.340534c2.621185,9.449154 18.579683,11.358591 20.745815,20.997451c3.722083,6.473462 -5.588309,5.516787 -9.926135,3.705428l0.000022,0.000006zm-22.694335,-28.189877c-1.343525,-4.271305 -4.108398,11.103292 -0.70019,2.94308l0.510216,-1.441683l0.189975,-1.501402l0,0.000006z" stroke-width="1.5" fill="#1890ff"/>
  <path stroke="#e6f7ff" id="svg_3" d="m113.992427,155.417917c-0.104789,-3.520513 1.957091,-6.979337 5.425578,-8.947734c5.655107,-3.634372 13.118963,-5.290465 20.134999,-4.289859c3.474232,-0.453298 5.011847,2.59645 3.789637,4.944989c-1.889172,1.562216 -5.175199,0.076433 -7.621884,0.884429c-7.932273,0.863679 -15.762343,3.779837 -21.123421,8.903514c-0.032703,-0.548128 -0.862586,-0.913364 -0.604908,-1.49534l-0.000002,0zm0.095815,3.12416c0.422382,-2.483498 3.351464,-3.776563 5.388129,-5.285824c6.856366,-4.103307 15.451206,-5.730491 23.762643,-5.454515c0.205957,2.829623 -1.368777,5.530403 -3.263436,7.772046c-2.601636,1.226465 -5.836983,-0.170064 -8.594869,0.946396c-4.837035,0.990067 -10.221163,2.237544 -13.317079,5.803374c-1.124946,2.863474 -3.502676,-0.051045 -3.68662,-1.736373c-0.261488,-0.669598 -0.225106,-1.357489 -0.288764,-2.045103l-0.000003,-0.000001zm1.328034,-8.492146c0.414022,-3.115972 2.842757,-5.69244 5.070858,-8.066666c2.511637,-2.530365 5.930797,-4.385398 9.773117,-5.064961c3.045491,-0.672604 6.184278,-0.952425 9.306635,-1.234951c2.367912,1.537896 3.874214,4.212198 3.477459,6.741825c-1.83913,0.393898 -5.090939,-0.937822 -7.570871,-0.613066c-7.033307,0.056014 -14.223441,2.439574 -18.976543,6.886335c-0.395751,0.429112 -0.751568,0.883881 -1.080654,1.351483l0,0.000001zm-0.376995,12.291911c2.630049,1.783325 2.716275,4.874181 4.332559,7.200717c-1.937429,-2.108978 -3.642812,-4.572819 -4.332559,-7.200717zm2.082603,1.698974c0.825043,-1.922264 3.411477,-4.623864 5.569427,-4.422959c0.862653,1.878863 1.236386,3.914686 2.638507,5.608478c3.764679,5.843501 10.654041,10.89866 18.84441,11.057805c1.339401,0.229562 4.890145,-0.533115 4.745843,-0.21756c-3.42323,1.421634 -7.386544,1.733372 -11.158422,1.618997c-7.005025,-0.393352 -13.982452,-3.238264 -18.193661,-8.051569c-1.191867,-1.728733 -1.869378,-3.665191 -2.446105,-5.592918l0,-0.000273zm5.765803,-4.901202c1.890166,-0.743305 5.431453,-3.004328 6.851781,-1.181969c3.466262,5.772803 9.326391,10.681377 16.540869,12.989628c3.745727,1.056673 7.959553,1.040017 11.612313,-0.278705c-1.523412,2.000065 -4.044342,3.282758 -6.42001,4.4609c-6.071677,2.191417 -13.411084,1.003172 -18.526881,-2.413342c-4.951446,-3.314421 -8.83825,-8.058124 -10.044871,-13.349947l-0.007132,-0.122565l-0.00607,-0.104l0,0l0,0zm2.532976,-20.786818c4.595177,-2.672582 10.28944,-3.925959 15.843631,-3.593016c-2.843115,1.534429 -6.410642,0.951498 -9.528253,1.782285c-2.174996,0.400423 -4.33385,0.938887 -6.315378,1.810729l0,0.000001zm3.967734,18.830702c3.025348,-1.210901 6.46827,-1.191246 9.737832,-1.025555c1.971164,2.59596 3.37674,5.613389 6.437434,7.484883c3.566892,2.693135 8.757254,3.453362 13.251616,2.187865c1.54342,-0.881697 3.256967,-0.318285 2.414081,1.430645c-1.014645,2.903873 -4.617361,4.179194 -7.918879,4.320048c-6.754454,0.570513 -12.933631,-2.674303 -17.496432,-6.593358c-2.661844,-2.253377 -4.910028,-4.881006 -6.425654,-7.804529l0.000002,0.000001zm10.259839,-21.591835c2.461858,-1.65156 5.81471,-0.15715 8.333708,0.633185c2.505437,1.812585 2.841178,4.828486 3.503287,7.403289c1.106966,6.044275 0.659209,12.53745 -2.684285,18.054753c-0.798986,1.934001 -3.095236,2.981665 -4.566995,0.890706c-1.710319,-1.594975 -3.018079,-3.45091 -4.252237,-5.319398c-0.729906,-1.787964 1.659319,-3.048277 2.159695,-4.683102c0.974929,-1.629913 1.222857,-3.463192 1.332296,-5.247061c0.459378,-2.668624 0.007427,-5.437047 -0.822559,-8.020997c-0.582052,-1.429798 -1.527282,-2.814636 -3.002909,-3.711376l0,0.000001zm7.075986,28.546332c4.846239,-4.629597 5.614556,-11.203572 5.249769,-17.122143c-0.222103,-3.489559 -0.849677,-7.095705 -3.025832,-10.134618c2.248789,0.058882 4.667391,1.844989 6.429366,3.160329c4.993769,5.368915 6.462289,13.223155 2.66588,19.39204c-1.493387,2.494414 -3.516198,4.745885 -5.890896,6.687529c-1.987955,-0.138121 -4.003019,-0.774148 -5.428288,-1.983137l0.000002,0zm5.526428,2.00989c5.219096,-4.253445 8.998725,-10.366644 7.870777,-16.63489c-0.449047,-2.935808 -1.716774,-5.771792 -3.615311,-8.255424c3.477144,1.832158 5.41054,5.077217 7.149587,8.091915c2.499954,5.2689 1.140865,11.690827 -3.326697,15.901963c-2.294318,1.100346 -5.531598,1.268771 -8.078355,0.896436zm8.592286,-0.983792c1.790389,-2.644548 3.821918,-5.325401 4.008514,-8.462933c0.27827,-1.049032 -0.153343,2.058203 -0.303137,2.711971c-0.476163,2.308792 -1.097928,4.77291 -2.790164,6.656686c-0.38933,-0.182617 -0.215645,-1.071959 -0.915212,-0.905723l-0.000002,0z" stroke-width="1.5" fill="#ff4d4f"/>
 </g>
</svg>